<?xml version="1.0" encoding="utf-8"?>
<!-- Generator: Adobe Illustrator 16.0.0, SVG Export Plug-In . SVG Version: 6.00 Build 0)  -->
<!DOCTYPE svg PUBLIC "-//W3C//DTD SVG 1.1//EN" "http://www.w3.org/Graphics/SVG/1.1/DTD/svg11.dtd">
<svg version="1.1" id="Layer_1" xmlns="http://www.w3.org/2000/svg" xmlns:xlink="http://www.w3.org/1999/xlink" x="0px" y="0px"
	 width="871.654px" height="897.389px" viewBox="0 0 871.654 897.389" enable-background="new 0 0 871.654 897.389"
	 xml:space="preserve">
<g id="Group_109" transform="translate(1933.996 3219.25) rotate(180)">
	<path id="Path_187" opacity="0.03" fill="#002BFF" enable-background="new    " d="M1933.014,2321.862
		c0,0-94.814,231.538-425.014,157.438c-330.2-74.1-471.11,172.11-441.91,381.669c29.2,209.559,109.33,282.112,352.12,174.071
		s414.688-54.082,514.8,184.208C1935.224,3220.938,1933.014,2321.862,1933.014,2321.862z"/>
	<path id="Path_197" opacity="0.03" fill="#002BFF" enable-background="new    " d="M1933.014,2321.862
		c0,0-94.814,231.538-425.014,157.438c-330.2-74.1-471.11,172.11-441.91,381.669c29.2,209.559,109.33,282.112,352.12,174.071
		s414.688-54.082,514.8,184.208C1935.224,3220.938,1933.014,2321.862,1933.014,2321.862z"/>
</g>
</svg>
